<?xml version="1.0"?>
<svg xmlns="http://www.w3.org/2000/svg" height="512px" viewBox="0 0 480.00693 480" width="512px" class=""><g><path d="m360.003906 311.863281v-128c0-17.671875-14.328125-32-32-32h-176c-17.671875 0-32 14.328125-32 32v128zm0 0" fill="#cff09e" data-original="#CFF09E" class="" style="fill:#EBEEEB" data-old_color="#CFF09E"/><path d="m120.003906 391.863281v24l120 56 120-56v-24zm0 0" fill="#cff09e" data-original="#CFF09E" class="" style="fill:#EBEEEB" data-old_color="#CFF09E"/><path d="m120.003906 415.863281 34.289063 16 205.710937-24v-16h-240zm0 0" fill="#a8dba8" data-original="#A8DBA8" class="" style="fill:#D6D6D6" data-old_color="#A8DBA8"/><path d="m176.921875 151.863281h-24.917969c-17.671875 0-32 14.328125-32 32v128h84.617188c-3.339844-7.855469-6.4375-15.910156-9.289063-24.160156-15.28125-43.5625-21.542969-89.777344-18.410156-135.839844zm0 0" fill="#a8dba8" data-original="#A8DBA8" class="" style="fill:#D6D6D6" data-old_color="#A8DBA8"/><path d="m252.164062 391.863281h-132.160156v24l120 56 63.902344-29.824219c-19.316406-14.449218-36.707031-31.308593-51.742188-50.175781zm0 0" fill="#a8dba8" data-original="#A8DBA8" class="" style="fill:#D6D6D6" data-old_color="#A8DBA8"/><path d="m72.003906 311.863281h336v80h-336zm0 0" fill="#a8dba8" data-original="#A8DBA8" class="" style="fill:#D6D6D6" data-old_color="#A8DBA8"/><path d="m356.003906 375.863281c-69.601562 0-130.273437-25.75-162.785156-64h-121.214844v80h336v-21c-17.132812 3.339844-34.546875 5.011719-52 5zm0 0" fill="#79bd9a" data-original="#79BD9A" class="active-path" style="fill:#B8B8B8" data-old_color="#79BD9A"/><path d="m472.003906 271.863281h-112l48 40v40h64l-32-40zm0 0" fill="#a8dba8" data-original="#A8DBA8" class="" style="fill:#D6D6D6" data-old_color="#A8DBA8"/><path d="m408.003906 311.863281h-48v-40zm0 0" fill="#79bd9a" data-original="#79BD9A" class="active-path" style="fill:#B8B8B8" data-old_color="#79BD9A"/><path d="m120.003906 271.863281h-112l32 40-32 40h64v-40zm0 0" fill="#79bd9a" data-original="#79BD9A" class="active-path" style="fill:#B8B8B8" data-old_color="#79BD9A"/><path d="m72.003906 311.863281h48v-40zm0 0" fill="#79bd9a" data-original="#79BD9A" class="active-path" style="fill:#B8B8B8" data-old_color="#79BD9A"/><path d="m304.003906 263.863281-80-16v-48l80-16zm0 0" fill="#a8dba8" data-original="#A8DBA8" class="" style="fill:#D6D6D6" data-old_color="#A8DBA8"/><path d="m200.003906 199.863281h24v48h-24c-13.253906 0-24-10.746093-24-24 0-13.253906 10.746094-24 24-24zm0 0" fill="#a8dba8" data-original="#A8DBA8" class="" style="fill:#D6D6D6" data-old_color="#A8DBA8"/><path d="m224.003906 229.398438v18.464843l80 16v-25.144531c-6.640625.742188-13.316406 1.125-20 1.144531-20.464844.128907-40.785156-3.417969-60-10.464843zm0 0" fill="#79bd9a" data-original="#79BD9A" class="active-path" style="fill:#B8B8B8" data-old_color="#79BD9A"/><path d="m185.011719 205.257812c-7.957031 6.34375-11.027344 17.03125-7.648438 26.632813 3.378907 9.597656 12.460938 16.007813 22.640625 15.972656h24v-18.464843c-14.582031-5.152344-27.878906-13.386719-38.992187-24.140626zm0 0" fill="#79bd9a" data-original="#79BD9A" class="active-path" style="fill:#B8B8B8" data-old_color="#79BD9A"/><path d="m192.003906 247.863281h32v16c0 8.835938-7.164062 16-16 16-8.835937 0-16-7.164062-16-16zm0 0" fill="#cff09e" data-original="#CFF09E" class="" style="fill:#EBEEEB" data-old_color="#CFF09E"/><path d="m240.003906 7.863281 18.808594 22.113281 26.839844 11.054688-15.21875 24.722656-2.214844 28.941406-28.214844-6.832031-28.214844 6.832031-2.21875-28.941406-15.214843-24.722656 26.839843-11.054688zm0 0" fill="#cff09e" data-original="#CFF09E" class="" style="fill:#EBEEEB" data-old_color="#CFF09E"/><path d="m358.355469 43.28125 13.863281 16.292969 19.785156 8.152343-11.214844 18.21875-1.632812 21.335938-20.800781-5.03125-20.792969 5.03125-1.640625-21.335938-11.214844-18.21875 19.785157-8.152343zm0 0" fill="#cff09e" data-original="#CFF09E" class="" style="fill:#EBEEEB" data-old_color="#CFF09E"/><path d="m126.355469 43.28125 13.863281 16.292969 19.785156 8.152343-11.214844 18.21875-1.632812 21.335938-20.800781-5.03125-20.792969 5.03125-1.640625-21.335938-11.214844-18.21875 19.785157-8.152343zm0 0" fill="#cff09e" data-original="#CFF09E" class="" style="fill:#EBEEEB" data-old_color="#CFF09E"/><path d="m41.652344 111.863281 13.863281 16.296875 19.785156 8.152344-11.21875 18.214844-1.636719 21.335937-20.792968-5.039062-20.800782 5.039062-1.632812-21.335937-11.214844-18.214844 19.785156-8.152344zm0 0" fill="#cff09e" data-original="#CFF09E" class="" style="fill:#EBEEEB" data-old_color="#CFF09E"/><path d="m438.355469 111.863281 13.863281 16.296875 19.785156 8.152344-11.214844 18.214844-1.632812 21.335937-20.800781-5.039062-20.792969 5.039062-1.640625-21.335937-11.214844-18.214844 19.785157-8.152344zm0 0" fill="#cff09e" data-original="#CFF09E" class="" style="fill:#EBEEEB" data-old_color="#CFF09E"/><path d="m217.371094 31.550781-23.015625 9.480469c.992187 3.386719 15.199219 24.722656 15.199219 24.722656l2.214843 28.941406 28.234375-6.832031 28.214844 6.832031 1.761719-22.925781c-.664063 0-1.3125.09375-1.976563.09375-24.203125-.015625-45.191406-16.726562-50.632812-40.3125zm0 0" fill="#a8dba8" data-original="#A8DBA8" class="" style="fill:#D6D6D6" data-old_color="#A8DBA8"/><path d="m352.003906 51.863281c0-.398437.046875-.800781.0625-1.183593l-7.574218 8.894531-19.785157 8.152343 11.199219 18.21875 1.601562 21.335938 20.800782-5.03125 20.800781 5.03125 1.101563-14.402344c-16.976563-6.527344-28.1875-22.828125-28.207032-41.015625zm0 0" fill="#a8dba8" data-original="#A8DBA8" class="" style="fill:#D6D6D6" data-old_color="#A8DBA8"/><path d="m32.5625 122.542969-4.800781 5.601562-19.757813 8.167969 11.199219 18.214844 1.65625 21.335937 20.800781-5.039062 20.800782 5.039062 1.359374-17.75c-16.453124-4.761719-28.648437-18.640625-31.257812-35.570312zm0 0" fill="#a8dba8" data-original="#A8DBA8" class="" style="fill:#D6D6D6" data-old_color="#A8DBA8"/><path d="m432.171875 119.136719-7.679687 9.023437-19.785157 8.152344 11.199219 18.214844 1.695312 21.335937 20.800782-5.039062 20.800781 5.039062 1.449219-18.832031c-16.078125-5.988281-27.195313-20.789062-28.480469-37.894531zm0 0" fill="#a8dba8" data-original="#A8DBA8" class="" style="fill:#D6D6D6" data-old_color="#A8DBA8"/><path d="m120.003906 55.863281c.007813-1.84375.125-3.6875.34375-5.519531l-7.855468 9.230469-19.785157 8.152343 11.199219 18.21875 1.640625 21.335938 20.800781-5.03125 20.800782 5.03125.613281-7.9375c-16.914063-7.867188-27.742188-24.824219-27.757813-43.480469zm0 0" fill="#a8dba8" data-original="#A8DBA8" class="" style="fill:#D6D6D6" data-old_color="#A8DBA8"/><g fill="#3b8686"><path d="m450.25 311.863281 28-35c1.925781-2.402343 2.300781-5.691406.96875-8.464843-1.335938-2.773438-4.140625-4.535157-7.214844-4.535157h-104v-80c-.03125-22.078125-17.921875-39.96875-40-40h-176c-22.078125.03125-39.96875 17.921875-40 40v80h-104c-3.078125 0-5.882812 1.761719-7.214844 4.535157-1.332031 2.773437-.957031 6.0625.964844 8.464843l28 35-28 35c-1.921875 2.402344-2.296875 5.695313-.964844 8.464844 1.332032 2.773437 4.136719 4.539063 7.214844 4.535156h56v32c0 4.417969 3.582032 8 8 8h40v16c0 3.109375 1.800782 5.933594 4.617188 7.25l120 56c2.144531 1 4.621094 1 6.765625 0l120-56c2.816406-1.316406 4.617187-4.140625 4.617187-7.25v-16h40c4.417969 0 8-3.582031 8-8v-32h56c3.074219.003907 5.878906-1.761719 7.214844-4.535156 1.332031-2.769531.957031-6.0625-.96875-8.464844zm-82.246094-22.917969 17.902344 14.917969h-17.902344zm-240-105.082031c.023438-13.246093 10.753906-23.976562 24-24h176c13.246094.023438 23.976563 10.753907 24 24v120h-224zm-33.90625 120 17.90625-14.917969v14.917969zm-69.445312 40 21.597656-27c2.339844-2.921875 2.339844-7.078125 0-10l-21.597656-27h73.253906l-31.023438 25.847657c-.113281.097656-.175781.226562-.28125.320312-.210937.214844-.410156.441406-.597656.679688-.394531.449218-.734375.941406-1.015625 1.464843-.09375.140625-.179687.285157-.257812.433594-.074219.183594-.136719.375-.183594.566406-.261719.71875-.410156 1.46875-.449219 2.230469-.039062.152344-.070312.304688-.09375.457031v32zm327.351562 66.90625-112 52.292969-112-52.292969v-10.90625h224zm48-26.90625h-320v-64h320zm16-40v-32c-.023437-.152343-.058594-.304687-.097656-.457031-.035156-.761719-.1875-1.511719-.445312-2.230469-.050782-.191406-.109376-.382812-.183594-.566406-.078125-.148437-.164063-.292969-.257813-.433594-.28125-.523437-.621093-1.015625-1.015625-1.464843-.1875-.238282-.386718-.464844-.601562-.679688-.101563-.09375-.167969-.222656-.277344-.320312l-31.027344-25.847657h73.257813l-21.601563 27c-2.339844 2.921875-2.339844 7.078125 0 10l21.601563 27zm0 0" data-original="#000000" class="" style="fill:#000000"/><path d="m200.003906 343.863281h-48c-4.417968 0-8 3.582031-8 8s3.582032 8 8 8h48c4.417969 0 8-3.582031 8-8s-3.582031-8-8-8zm0 0" data-original="#000000" class="" style="fill:#000000"/><path d="m248.003906 343.863281h-16c-4.417968 0-8 3.582031-8 8s3.582032 8 8 8h16c4.417969 0 8-3.582031 8-8s-3.582031-8-8-8zm0 0" data-original="#000000" class="" style="fill:#000000"/><path d="m320.003906 343.863281h-40c-4.417968 0-8 3.582031-8 8s3.582032 8 8 8h40c4.417969 0 8-3.582031 8-8s-3.582031-8-8-8zm0 0" data-original="#000000" class="" style="fill:#000000"/><path d="m201.738281 68.304688 2.074219 27.007812c.167969 2.34375 1.359375 4.496094 3.257812 5.882812 1.898438 1.386719 4.3125 1.867188 6.597657 1.316407l26.335937-6.398438 26.335938 6.398438c.613281.15625 1.246094.230469 1.878906.222656 4.1875.015625 7.679688-3.207031 8-7.382813l2.074219-27.007812 14.175781-23.121094c1.230469-1.996094 1.519531-4.433594.792969-6.664062-.722657-2.234375-2.390625-4.035156-4.5625-4.925782l-25.046875-10.3125-17.554688-20.640624c-1.566406-1.707032-3.777344-2.67578175-6.09375-2.67578175s-4.527344.96874975-6.097656 2.67578175l-17.550781 20.640624-25.046875 10.3125c-2.171875.890626-3.839844 2.691407-4.566406 4.925782-.722657 2.230468-.433594 4.667968.796874 6.664062zm22.503907-30.9375c1.179687-.480469 2.222656-1.238282 3.050781-2.207032l12.710937-14.953125 12.710938 14.953125c.828125.96875 1.871094 1.726563 3.046875 2.207032l18.152343 7.472656-10.285156 16.71875c-.671875 1.085937-1.074218 2.316406-1.167968 3.585937l-1.496094 19.558594-19.082032-4.613281c-1.234374-.300782-2.523437-.300782-3.757812 0l-19.082031 4.613281-1.496094-19.558594c-.09375-1.269531-.496094-2.5-1.167969-3.585937l-10.289062-16.71875zm0 0" data-original="#000000" class="" style="fill:#000000"/><path d="m328.097656 88.496094 1.503906 19.367187c.320313 4.179688 3.8125 7.40625 8 7.394531.636719 0 1.265626-.078124 1.882813-.234374l18.910156-4.566407 18.914063 4.566407c2.277344.574218 4.695312.09375 6.582031-1.304688 1.898437-1.375 3.097656-3.515625 3.28125-5.855469l1.488281-19.390625 10.199219-16.578125c1.230469-1.996093 1.519531-4.433593.796875-6.664062-.726562-2.234375-2.394531-4.035157-4.566406-4.925781l-17.992188-7.410157-12.644531-14.804687c-1.570313-1.703125-3.78125-2.671875-6.097656-2.671875-2.316407 0-4.527344.96875-6.097657 2.671875l-12.605468 14.832031-17.984375 7.40625c-2.171875.894531-3.839844 2.695313-4.5625 4.925781-.726563 2.230469-.4375 4.667969.792969 6.667969zm19.441406-21.519532c1.179688-.488281 2.222657-1.25 3.046876-2.222656l7.769531-9.128906 7.769531 9.128906c.824219.972656 1.867188 1.734375 3.046875 2.222656l11.085937 4.558594-6.277343 10.21875c-.671875 1.085938-1.074219 2.316406-1.167969 3.589844l-.921875 11.953125-11.65625-2.824219c-1.234375-.300781-2.523437-.300781-3.757813 0l-11.65625 2.824219-.921874-11.953125c-.09375-1.273438-.492188-2.503906-1.160157-3.589844l-6.285156-10.21875zm0 0" data-original="#000000" class="" style="fill:#000000"/><path d="m96.097656 88.496094 1.503906 19.367187c.320313 4.179688 3.8125 7.40625 8 7.394531.636719 0 1.265626-.078124 1.882813-.234374l18.910156-4.566407 18.914063 4.566407c2.277344.574218 4.695312.09375 6.582031-1.304688 1.898437-1.375 3.097656-3.515625 3.28125-5.855469l1.488281-19.390625 10.199219-16.578125c1.230469-1.996093 1.519531-4.433593.796875-6.664062-.726562-2.234375-2.394531-4.035157-4.566406-4.925781l-17.992188-7.410157-12.644531-14.804687c-1.570313-1.703125-3.78125-2.671875-6.097656-2.671875-2.316407 0-4.527344.96875-6.097657 2.671875l-12.605468 14.832031-17.984375 7.40625c-2.171875.894531-3.839844 2.695313-4.5625 4.925781-.726563 2.230469-.4375 4.667969.792969 6.667969zm19.441406-21.519532c1.179688-.488281 2.222657-1.25 3.046876-2.222656l7.769531-9.128906 7.769531 9.128906c.824219.972656 1.867188 1.734375 3.046875 2.222656l11.085937 4.558594-6.277343 10.21875c-.671875 1.085938-1.074219 2.316406-1.167969 3.589844l-.921875 11.953125-11.65625-2.824219c-1.234375-.300781-2.523437-.300781-3.757813 0l-11.65625 2.824219-.921874-11.953125c-.09375-1.273438-.492188-2.503906-1.160157-3.589844l-6.285156-10.21875zm0 0" data-original="#000000" class="" style="fill:#000000"/><path d="m184.003906 251.417969v12.445312c0 13.253907 10.746094 24 24 24s24-10.746093 24-24v-6.238281l70.398438 14.078125c2.355468.480469 4.800781-.121094 6.660156-1.640625 1.863281-1.519531 2.941406-3.796875 2.941406-6.199219v-80c0-2.402343-1.078125-4.675781-2.941406-6.195312-1.859375-1.519531-4.304688-2.125-6.660156-1.644531l-79.199219 15.839843h-23.199219c-14.46875-.050781-27.160156 9.648438-30.914062 23.621094s2.367187 28.722656 14.914062 35.933594zm32 12.445312c0 4.417969-3.582031 8-8 8-4.417968 0-8-3.582031-8-8v-8h16zm80-9.757812-64-12.800781v-34.886719l64-12.800781zm-96-46.242188h16v32h-16c-8.835937 0-16-7.164062-16-16 0-8.835937 7.164063-16 16-16zm0 0" data-original="#000000" class="" style="fill:#000000"/><path d="m11.386719 157.070312 1.488281 19.402344c.167969 2.347656 1.363281 4.5 3.261719 5.886719 1.902343 1.386719 4.316406 1.867187 6.601562 1.3125l18.914063-4.609375 18.910156 4.585938c2.285156.550781 4.699219.070312 6.597656-1.316407 1.898438-1.386719 3.089844-3.539062 3.257813-5.882812l1.488281-19.402344 10.203125-16.566406c1.226563-2 1.519531-4.4375.792969-6.667969-.722656-2.230469-2.394532-4.03125-4.5625-4.925781l-17.984375-7.421875-12.609375-14.785156c-1.566406-1.707032-3.777344-2.675782-6.09375-2.675782s-4.527344.96875-6.097656 2.675782l-12.605469 14.785156-17.992188 7.40625c-2.171875.894531-3.839843 2.695312-4.566406 4.925781-.722656 2.230469-.4335938 4.667969.796875 6.667969zm19.449219-21.511718c1.175781-.484375 2.222656-1.242188 3.046874-2.214844l7.769532-9.136719 7.765625 9.136719c.828125.972656 1.871093 1.730469 3.050781 2.214844l11.085938 4.5625-6.289063 10.214844c-.664063 1.085937-1.0625 2.3125-1.15625 3.585937l-.90625 11.949219-11.671875-2.808594c-1.234375-.292969-2.523438-.292969-3.761719 0l-11.652343 2.824219-.914063-11.964844c-.09375-1.273437-.496094-2.503906-1.167969-3.585937l-6.28125-10.214844zm0 0" data-original="#000000" class="" style="fill:#000000"/><path d="m397.097656 133.839844c-.722656 2.230468-.429687 4.667968.800782 6.664062l10.199218 16.566406 1.488282 19.402344c.171874 2.34375 1.363281 4.496094 3.261718 5.882813 1.898438 1.386719 4.308594 1.867187 6.597656 1.316406l18.910157-4.582031 18.910156 4.582031c2.289063.554687 4.703125.074219 6.601563-1.3125 1.902343-1.386719 3.09375-3.539063 3.265624-5.886719l1.488282-19.402344 10.199218-16.566406c1.230469-1.996094 1.519532-4.433594.792969-6.667968-.722656-2.230469-2.390625-4.03125-4.5625-4.921876l-17.992187-7.449218-12.605469-14.824219c-1.570313-1.707031-3.78125-2.675781-6.097656-2.675781-2.316407 0-4.527344.96875-6.097657 2.675781l-12.605468 14.824219-17.984375 7.40625c-2.179688.902344-3.851563 2.71875-4.570313 4.96875zm30.441406 1.71875c1.179688-.484375 2.222657-1.242188 3.046876-2.214844l7.769531-9.136719 7.769531 9.136719c.824219.972656 1.867188 1.730469 3.046875 2.214844l11.085937 4.5625-6.277343 10.214844c-.671875 1.082031-1.074219 2.3125-1.167969 3.585937l-.921875 11.949219-11.65625-2.808594c-1.234375-.296875-2.523437-.296875-3.757813 0l-11.65625 2.824219-.921874-11.949219c-.09375-1.269531-.492188-2.5-1.160157-3.585938l-6.285156-10.214843zm0 0" data-original="#000000" class="" style="fill:#000000"/></g></g> </svg>
