<?xml version="1.0"?>
<svg xmlns="http://www.w3.org/2000/svg" height="512px" viewBox="0 0 480 480.10997" width="512px" class=""><g><path d="m200.054688 256.109375h40v16c0 8.835937-7.164063 16-16 16h-8c-8.835938 0-16-7.164063-16-16zm0 0" fill="#a8dba8" data-original="#A8DBA8" class="" style="fill:#D6D6D6" data-old_color="#A8DBA8"/><path d="m240.054688 256.109375h40v16c0 8.835937-7.164063 16-16 16h-8c-8.835938 0-16-7.164063-16-16zm0 0" fill="#a8dba8" data-original="#A8DBA8" class="" style="fill:#D6D6D6" data-old_color="#A8DBA8"/><path d="m280.054688 48.109375c0 22.089844-17.910157 40-40 40-22.089844 0-40-17.910156-40-40 0-22.09375 17.910156-40 40-40 22.089843 0 40 17.90625 40 40zm0 0" fill="#cff09e" data-original="#CFF09E" class="active-path" style="fill:#EBEEEB" data-old_color="#CFF09E"/><path d="m224.054688 16.109375c0-1.601563.136718-3.199219.242187-4.753906-14.191406 6-23.671875 19.621093-24.363281 35.011719-.691406 15.390624 7.523437 29.808593 21.117187 37.058593 13.597657 7.246094 30.148438 6.035157 42.539063-3.117187-24.238282-12.222656-39.527344-37.054688-39.535156-64.199219zm0 0" fill="#a8dba8" data-original="#A8DBA8" class="" style="fill:#D6D6D6" data-old_color="#A8DBA8"/><path d="m200.054688 160.109375h80v96h-80zm0 0" fill="#a8dba8" data-original="#A8DBA8" class="" style="fill:#D6D6D6" data-old_color="#A8DBA8"/><path d="m328.054688 40.109375c8.835937 0 16 7.164063 16 16v48c0 8.835937-7.164063 16-16 16h-16v-64c0-8.835937 7.164062-16 16-16zm0 0" fill="#cff09e" data-original="#CFF09E" class="active-path" style="fill:#EBEEEB" data-old_color="#CFF09E"/><path d="m280.054688 88.109375h-112v32h32v40h80v-40h32v-32zm0 0" fill="#a8dba8" data-original="#A8DBA8" class="" style="fill:#D6D6D6" data-old_color="#A8DBA8"/><path d="m168.054688 120.109375h-16c-8.835938 0-16-7.164063-16-16v-48c0-8.835937 7.164062-16 16-16 8.835937 0 16 7.164063 16 16zm0 0" fill="#cff09e" data-original="#CFF09E" class="active-path" style="fill:#EBEEEB" data-old_color="#CFF09E"/><path d="m144.054688 248.109375h56v-128h-16zm0 0" fill="#a8dba8" data-original="#A8DBA8" class="" style="fill:#D6D6D6" data-old_color="#A8DBA8"/><path d="m336.054688 248.109375h-56v-128h16zm0 0" fill="#a8dba8" data-original="#A8DBA8" class="" style="fill:#D6D6D6" data-old_color="#A8DBA8"/><path d="m200.054688 160.109375v96h72.160156c-19.734375-20.800781-36.433594-54.992187-45.527344-96zm0 0" fill="#79bd9a" data-original="#79BD9A" class="" style="fill:#B8B8B8" data-old_color="#79BD9A"/><path d="m222.519531 137.8125c-2.386719-16.453125-3.363281-33.082031-2.914062-49.703125h-51.550781v32h32v40h26.632812c-1.609375-7.257813-3.066406-14.648437-4.167969-22.296875zm0 0" fill="#79bd9a" data-original="#79BD9A" class="" style="fill:#B8B8B8" data-old_color="#79BD9A"/><path d="m176.054688 248.109375h24v-128h-16zm0 0" fill="#79bd9a" data-original="#79BD9A" class="" style="fill:#B8B8B8" data-old_color="#79BD9A"/><path d="m376.054688 272.109375h64v96h-64zm0 0" fill="#a8dba8" data-original="#A8DBA8" class="" style="fill:#D6D6D6" data-old_color="#A8DBA8"/><path d="m440.054688 232.109375h32v48c0 8.835937-7.164063 16-16 16-8.835938 0-16-7.164063-16-16zm0 0" fill="#cff09e" data-original="#CFF09E" class="active-path" style="fill:#EBEEEB" data-old_color="#CFF09E"/><path d="m440.054688 200.109375h-80c-8.835938 0-16 7.164063-16 16v16h32v40h64v-40h32v-16c0-8.835937-7.164063-16-16-16zm0 0" fill="#a8dba8" data-original="#A8DBA8" class="" style="fill:#D6D6D6" data-old_color="#A8DBA8"/><path d="m344.054688 232.109375h32v48c0 8.835937-7.164063 16-16 16-8.835938 0-16-7.164063-16-16zm0 0" fill="#a8dba8" data-original="#A8DBA8" class="" style="fill:#D6D6D6" data-old_color="#A8DBA8"/><path d="m440.054688 168.109375c0 17.671875-14.328126 32-32 32-17.671876 0-32-14.328125-32-32 0-17.675781 14.328124-32 32-32 17.671874 0 32 14.324219 32 32zm0 0" fill="#cff09e" data-original="#CFF09E" class="active-path" style="fill:#EBEEEB" data-old_color="#CFF09E"/><path d="m408.054688 368.109375h32v16c0 8.835937-7.164063 16-16 16-8.835938 0-16-7.164063-16-16zm0 0" fill="#a8dba8" data-original="#A8DBA8" class="" style="fill:#D6D6D6" data-old_color="#A8DBA8"/><path d="m376.054688 368.109375h32v16c0 8.835937-7.164063 16-16 16-8.835938 0-16-7.164063-16-16zm0 0" fill="#a8dba8" data-original="#A8DBA8" class="" style="fill:#D6D6D6" data-old_color="#A8DBA8"/><path d="m376.054688 272.109375v96h64v-4c-16.496094-19.6875-29.246094-52.472656-35.582032-92zm0 0" fill="#79bd9a" data-original="#79BD9A" class="" style="fill:#B8B8B8" data-old_color="#79BD9A"/><path d="m400.054688 216.109375c0-5.402344.144531-10.730469.367187-16h-40.367187c-8.835938 0-16 7.164063-16 16v16h32v40h28.417968c-2.949218-18.523437-4.425781-37.246094-4.417968-56zm0 0" fill="#79bd9a" data-original="#79BD9A" class="" style="fill:#B8B8B8" data-old_color="#79BD9A"/><path d="m392.054688 140.53125c-11.621094 6.703125-17.808594 19.960938-15.480469 33.171875 2.328125 13.214844 12.671875 23.558594 25.882812 25.886719 13.214844 2.328125 26.472657-3.859375 33.175781-15.480469-23.972656-.230469-43.347656-19.605469-43.578124-43.578125zm0 0" fill="#a8dba8" data-original="#A8DBA8" class="" style="fill:#D6D6D6" data-old_color="#A8DBA8"/><path d="m40.054688 344.109375h64v96h-64zm0 0" fill="#a8dba8" data-original="#A8DBA8" class="" style="fill:#D6D6D6" data-old_color="#A8DBA8"/><path d="m104.054688 304.109375h32v48c0 8.835937-7.164063 16-16 16-8.835938 0-16-7.164063-16-16zm0 0" fill="#cff09e" data-original="#CFF09E" class="active-path" style="fill:#EBEEEB" data-old_color="#CFF09E"/><path d="m104.054688 272.109375h-80c-8.835938 0-16 7.164063-16 16v16h32v40h64v-40h32v-16c0-8.835937-7.164063-16-16-16zm0 0" fill="#a8dba8" data-original="#A8DBA8" class="" style="fill:#D6D6D6" data-old_color="#A8DBA8"/><path d="m8.054688 304.109375h32v48c0 8.835937-7.164063 16-16 16-8.835938 0-16-7.164063-16-16zm0 0" fill="#a8dba8" data-original="#A8DBA8" class="" style="fill:#D6D6D6" data-old_color="#A8DBA8"/><path d="m104.054688 240.109375c0 17.671875-14.328126 32-32 32-17.671876 0-32-14.328125-32-32 0-17.675781 14.328124-32 32-32 17.671874 0 32 14.324219 32 32zm0 0" fill="#cff09e" data-original="#CFF09E" class="active-path" style="fill:#EBEEEB" data-old_color="#CFF09E"/><path d="m72.054688 440.109375h32v16c0 8.835937-7.164063 16-16 16-8.835938 0-16-7.164063-16-16zm0 0" fill="#a8dba8" data-original="#A8DBA8" class="" style="fill:#D6D6D6" data-old_color="#A8DBA8"/><path d="m40.054688 440.109375h32v16c0 8.835937-7.164063 16-16 16-8.835938 0-16-7.164063-16-16zm0 0" fill="#a8dba8" data-original="#A8DBA8" class="" style="fill:#D6D6D6" data-old_color="#A8DBA8"/><path d="m40.054688 344.109375v96h64v-4c-16.496094-19.6875-29.246094-52.472656-35.582032-92zm0 0" fill="#79bd9a" data-original="#79BD9A" class="" style="fill:#B8B8B8" data-old_color="#79BD9A"/><path d="m64.054688 288.109375c0-5.402344.144531-10.730469.367187-16h-40.367187c-8.835938 0-16 7.164063-16 16v16h32v40h28.417968c-2.949218-18.523437-4.425781-37.246094-4.417968-56zm0 0" fill="#79bd9a" data-original="#79BD9A" class="" style="fill:#B8B8B8" data-old_color="#79BD9A"/><path d="m56.054688 212.53125c-11.621094 6.703125-17.808594 19.960938-15.480469 33.171875 2.328125 13.214844 12.671875 23.558594 25.882812 25.886719 13.214844 2.328125 26.472657-3.859375 33.175781-15.480469-23.972656-.230469-43.347656-19.605469-43.578124-43.578125zm0 0" fill="#a8dba8" data-original="#A8DBA8" class="" style="fill:#D6D6D6" data-old_color="#A8DBA8"/><g fill="#3b8686"><path d="m456.054688 192.109375h-16.207032c5.292969-6.882813 8.179688-15.316406 8.207032-24 0-22.09375-17.910157-40-40-40-22.089844 0-40 17.90625-40 40 .03125 8.683594 2.914062 17.117187 8.207031 24h-16.207031c-13.242188.023437-23.972657 10.753906-24 24v5.175781l-29.121094-93.175781h21.121094c13.253906 0 24-10.746094 24-24v-48c0-13.257813-10.746094-24-24-24-13.253907 0-24 10.742187-24 24v24h-28.320313c17.296875-19.21875 16.261719-48.683594-2.339844-66.640625-18.597656-17.957031-48.082031-17.957031-66.679687 0-18.601563 17.957031-19.632813 47.421875-2.339844 66.640625h-28.320312v-24c0-13.257813-10.746094-24-24-24-13.253907 0-24 10.742187-24 24v48c0 13.253906 10.746093 24 24 24h21.121093l-36.753906 117.597656c-.761719 2.429688-.324219 5.082031 1.183594 7.132813 1.507812 2.054687 3.902343 3.269531 6.449219 3.269531h48v16c0 13.253906 10.746093 24 24 24h8c5.921874-.023437 11.628906-2.246094 16-6.242187 4.375 3.996093 10.078124 6.21875 16 6.242187h8c13.253906 0 24-10.746094 24-24v-16h48v24c0 13.253906 10.746093 24 24 24 2.730468-.027344 5.4375-.527344 8-1.472656v81.472656c-.042969 9.484375 5.53125 18.09375 14.199218 21.945313 8.667969 3.847656 18.792969 2.207031 25.800782-4.1875 7.007812 6.394531 17.132812 8.035156 25.800781 4.1875 8.667969-3.851563 14.242187-12.460938 14.199219-21.945313v-81.472656c2.5625.945312 5.269531 1.445312 8 1.472656 13.253906 0 24-10.746094 24-24v-64c-.027344-13.246094-10.753907-23.976563-24-24zm-136-136c0-4.417969 3.582031-8 8-8 4.417968 0 8 3.582031 8 8v48c0 4.417969-3.582032 8-8 8h-8zm-112-8c0-17.675781 14.328124-32 32-32 17.671874 0 32 14.324219 32 32 0 17.671875-14.328126 32-32 32-17.671876 0-32-14.328125-32-32zm96 48v16h-24c-4.417969 0-8 3.582031-8 8v32h-64v-32c0-4.417969-3.582032-8-8-8h-24v-16zm-64 96c-4.417969 0-8 3.582031-8 8v48h-24v-80h64v80h-24v-48c0-4.417969-3.582032-8-8-8zm-96-88v-48c0-4.417969 3.582031-8 8-8 4.417968 0 8 3.582031 8 8v56h-8c-4.417969 0-8-3.582031-8-8zm10.878906 136 35-112h2.121094v112zm69.121094 40h-8c-4.417969 0-8-3.582031-8-8v-8h24v8c0 4.417969-3.582032 8-8 8zm48-8c0 4.417969-3.582032 8-8 8h-8c-4.417969 0-8-3.582031-8-8v-8h24zm16-32v-112h2.121093l35 112zm96-72c0-13.257813 10.746093-24 24-24 13.253906 0 24 10.742187 24 24 0 13.253906-10.746094 24-24 24-13.253907 0-24-10.746094-24-24zm-32 48c0-4.417969 3.582031-8 8-8h96c4.417968 0 8 3.582031 8 8v8h-24c-4.417969 0-8 3.582031-8 8v32h-48v-32c0-4.417969-3.582032-8-8-8h-24zm80 144h-16v-48c0-4.417969-3.582032-8-8-8-4.417969 0-8 3.582031-8 8v48h-16v-80h48zm-72-72c-4.417969 0-8-3.582031-8-8v-40h16v40c0 4.417969-3.582032 8-8 8zm32 104c-4.417969 0-8-3.582031-8-8v-8h16v8c0 4.417969-3.582032 8-8 8zm40-8c0 4.417969-3.582032 8-8 8-4.417969 0-8-3.582031-8-8v-8h16zm32-104c0 4.417969-3.582032 8-8 8-4.417969 0-8-3.582031-8-8v-40h16zm0 0" data-original="#000000" class="" style="fill:#000000"/><path d="m120.054688 264.109375h-16.207032c5.292969-6.882813 8.179688-15.316406 8.207032-24 0-22.09375-17.910157-40-40-40-22.089844 0-40 17.90625-40 40 .03125 8.683594 2.914062 17.117187 8.207031 24h-16.207031c-13.242188.023437-23.9726568 10.753906-24.0000005 24v64c0 13.253906 10.7460935 24 24.0000005 24 2.730468-.027344 5.4375-.527344 8-1.472656v81.472656c-.042969 9.484375 5.53125 18.09375 14.199218 21.945313 8.667969 3.847656 18.792969 2.207031 25.800782-4.1875 7.007812 6.394531 17.132812 8.035156 25.800781 4.1875 8.667969-3.851563 14.242187-12.460938 14.199219-21.945313v-81.472656c2.5625.945312 5.269531 1.445312 8 1.472656 13.253906 0 24-10.746094 24-24v-64c-.027344-13.246094-10.753907-23.976563-24-24zm-72-24c0-13.257813 10.746093-24 24-24 13.253906 0 24 10.742187 24 24 0 13.253906-10.746094 24-24 24-13.253907 0-24-10.746094-24-24zm-32 48c0-4.417969 3.582031-8 8-8h96c4.417968 0 8 3.582031 8 8v8h-24c-4.417969 0-8 3.582031-8 8v32h-48v-32c0-4.417969-3.582032-8-8-8h-24zm80 144h-16v-48c0-4.417969-3.582032-8-8-8-4.417969 0-8 3.582031-8 8v48h-16v-80h48zm-72-72c-4.417969 0-8-3.582031-8-8v-40h16v40c0 4.417969-3.582032 8-8 8zm32 104c-4.417969 0-8-3.582031-8-8v-8h16v8c0 4.417969-3.582032 8-8 8zm40-8c0 4.417969-3.582032 8-8 8-4.417969 0-8-3.582031-8-8v-8h16zm32-104c0 4.417969-3.582032 8-8 8-4.417969 0-8-3.582031-8-8v-40h16zm0 0" data-original="#000000" class="" style="fill:#000000"/><path d="m240.054688 352.109375c-4.417969 0-8 3.582031-8 8v104c0 4.417969 3.582031 8 8 8 4.417968 0 8-3.582031 8-8v-104c0-4.417969-3.582032-8-8-8zm0 0" data-original="#000000" class="" style="fill:#000000"/><path d="m296.054688 304.109375c-4.417969 0-8 3.582031-8 8v48c0 4.417969 3.582031 8 8 8 4.417968 0 8-3.582031 8-8v-48c0-4.417969-3.582032-8-8-8zm0 0" data-original="#000000" class="" style="fill:#000000"/><path d="m184.054688 312.109375c0-4.417969-3.582032-8-8-8-4.417969 0-8 3.582031-8 8v48c0 4.417969 3.582031 8 8 8 4.417968 0 8-3.582031 8-8zm0 0" data-original="#000000" class="" style="fill:#000000"/><path d="m344.054688 360.109375c-4.417969 0-8 3.582031-8 8v32c0 4.417969 3.582031 8 8 8 4.417968 0 8-3.582031 8-8v-32c0-4.417969-3.582032-8-8-8zm0 0" data-original="#000000" class="" style="fill:#000000"/><path d="m408.054688 416.109375c-4.417969 0-8 3.582031-8 8v48c0 4.417969 3.582031 8 8 8 4.417968 0 8-3.582031 8-8v-48c0-4.417969-3.582032-8-8-8zm0 0" data-original="#000000" class="" style="fill:#000000"/><path d="m472.054688 376.109375c-4.417969 0-8 3.582031-8 8v40c0 4.417969 3.582031 8 8 8 4.417968 0 8-3.582031 8-8v-40c0-4.417969-3.582032-8-8-8zm0 0" data-original="#000000" class="" style="fill:#000000"/><path d="m136.054688 392.109375c-4.417969 0-8 3.582031-8 8v40c0 4.417969 3.582031 8 8 8 4.417968 0 8-3.582031 8-8v-40c0-4.417969-3.582032-8-8-8zm0 0" data-original="#000000" class="" style="fill:#000000"/><path d="m296.054688 408.109375c-4.417969 0-8 3.582031-8 8v40c0 4.417969 3.582031 8 8 8 4.417968 0 8-3.582031 8-8v-40c0-4.417969-3.582032-8-8-8zm0 0" data-original="#000000" class="" style="fill:#000000"/><path d="m192.054688 408.109375c-4.417969 0-8 3.582031-8 8v32c0 4.417969 3.582031 8 8 8 4.417968 0 8-3.582031 8-8v-32c0-4.417969-3.582032-8-8-8zm0 0" data-original="#000000" class="" style="fill:#000000"/></g></g> </svg>
