<?xml version="1.0"?>
<svg xmlns="http://www.w3.org/2000/svg" height="512px" viewBox="-8 0 480 480" width="512px" class=""><g><path d="m288 280c0 30.929688-25.070312 56-56 56s-56-25.070312-56-56 25.070312-56 56-56 56 25.070312 56 56zm0 0" fill="#cff09e" data-original="#CFF09E" class="active-path" style="fill:#EBEEEB" data-old_color="#EBEEEA"/><path d="m312 336h-160c-17.671875 0-32 14.328125-32 32v104h224v-104c0-17.671875-14.328125-32-32-32zm0 0" fill="#a8dba8" data-original="#A8DBA8" class="" style="fill:#D6D6D6" data-old_color="#D5D6D5"/><path d="m299.921875 454.222656c-40.316406-18.015625-77.914063-41.578125-111.707031-70l31.785156-20.222656 12 12 40-40h-128l3.265625 5.703125c-1.167969-1.503906-2.402344-3.007813-3.464844-4.511719-14 3.6875-23.769531 16.332032-23.800781 30.808594v104h224v-.0625c-14.558594-5.097656-29.304688-10.984375-44.078125-17.714844zm0 0" fill="#79bd9a" data-original="#79BD9A" class="" style="fill:#B8B8B8" data-old_color="#B6B8B6"/><path d="m208.976562 228.992188c-22.027343 9.871093-35.253906 32.746093-32.8125 56.761718 2.4375 24.011719 19.988282 43.761719 43.550782 49.003906 23.5625 5.242188 47.832031-5.203124 60.222656-25.917968-37.652344-9.773438-65.679688-41.308594-70.960938-79.847656zm0 0" fill="#a8dba8" data-original="#A8DBA8" class="" style="fill:#D6D6D6" data-old_color="#D5D6D5"/><path d="m400 208c0 30.929688-25.070312 56-56 56s-56-25.070312-56-56 25.070312-56 56-56 56 25.070312 56 56zm0 0" fill="#cff09e" data-original="#CFF09E" class="active-path" style="fill:#EBEEEB" data-old_color="#EBEEEA"/><path d="m424 264h-138.351562c5.074218 16.945312 1.835937 35.292969-8.734376 49.480469-10.570312 14.183593-27.222656 22.535156-44.914062 22.519531h80c17.671875 0 32 14.328125 32 32v104h64v-72h48v-104c0-17.671875-14.328125-32-32-32zm0 0" fill="#a8dba8" data-original="#A8DBA8" class="" style="fill:#D6D6D6" data-old_color="#D5D6D5"/><path d="m408 400h48v16c0 13.253906-10.746094 24-24 24s-24-10.746094-24-24zm0 0" fill="#a8dba8" data-original="#A8DBA8" class="" style="fill:#D6D6D6" data-old_color="#D5D6D5"/><path d="m344 304-40-40h80zm0 0" fill="#faa108" data-original="#FAA108"/><path d="m344 400h64v72h-64zm0 0" fill="#79bd9a" data-original="#79BD9A" class="" style="fill:#B8B8B8" data-old_color="#B6B8B6"/><path d="m320.976562 156.992188c-22.027343 9.871093-35.253906 32.746093-32.8125 56.761718 2.4375 24.011719 19.988282 43.761719 43.550782 49.003906 23.5625 5.242188 47.832031-5.203124 60.222656-25.917968-37.652344-9.773438-65.679688-41.308594-70.960938-79.847656zm0 0" fill="#a8dba8" data-original="#A8DBA8" class="" style="fill:#D6D6D6" data-old_color="#D5D6D5"/><path d="m300.214844 312.222656 31.785156-20.222656 12 12 40-40h-98.351562c5.074218 16.945312 1.835937 35.292969-8.734376 49.480469-10.570312 14.183593-27.222656 22.535156-44.914062 22.519531h80c17.671875 0 32 14.328125 32 32v32h112v-.0625c-14.558594-5.097656-29.304688-10.984375-44.078125-17.714844-40.316406-18.015625-77.914063-41.578125-111.707031-70zm0 0" fill="#79bd9a" data-original="#79BD9A" class="" style="fill:#B8B8B8" data-old_color="#B6B8B6"/><path d="m176 208c0 30.929688-25.070312 56-56 56s-56-25.070312-56-56 25.070312-56 56-56 56 25.070312 56 56zm0 0" fill="#cff09e" data-original="#CFF09E" class="active-path" style="fill:#EBEEEB" data-old_color="#EBEEEA"/><path d="m152 336h80c-17.691406.015625-34.34375-8.335938-44.914062-22.519531-10.570313-14.1875-13.808594-32.535157-8.734376-49.480469h-138.351562c-17.671875 0-32 14.328125-32 32v104h48v72h64v-104c0-17.671875 14.328125-32 32-32zm0 0" fill="#a8dba8" data-original="#A8DBA8" class="" style="fill:#D6D6D6" data-old_color="#D5D6D5"/><path d="m8 400h48v16c0 13.253906-10.746094 24-24 24s-24-10.746094-24-24zm0 0" fill="#a8dba8" data-original="#A8DBA8" class="" style="fill:#D6D6D6" data-old_color="#D5D6D5"/><path d="m120 304-40-40h80zm0 0" fill="#cff09e" data-original="#CFF09E" class="active-path" style="fill:#EBEEEB" data-old_color="#EBEEEA"/><path d="m56 400h64v72h-64zm0 0" fill="#79bd9a" data-original="#79BD9A" class="" style="fill:#B8B8B8" data-old_color="#B6B8B6"/><path d="m96.976562 156.992188c-22.027343 9.871093-35.253906 32.746093-32.8125 56.761718 2.4375 24.011719 19.988282 43.761719 43.550782 49.003906 23.5625 5.242188 47.832031-5.203124 60.222656-25.917968-37.652344-9.773438-65.679688-41.308594-70.960938-79.847656zm0 0" fill="#a8dba8" data-original="#A8DBA8" class="" style="fill:#D6D6D6" data-old_color="#D5D6D5"/><path d="m120 400v-32c.015625-6.839844 2.242188-13.488281 6.34375-18.960938-17.585938-11.027343-34.339844-23.328124-50.128906-36.800781l31.785156-20.238281 12 12 40-40h-120c-2.511719.023438-5.011719.347656-7.449219.960938l2.714844 4.742187c-1.167969-1.503906-2.402344-3.007813-3.464844-4.511719-4.964843 1.332032-9.539062 3.832032-13.34375 7.289063l-.226562.183593c-.894531.867188-1.738281 1.785157-2.535157 2.742188-.449218.53125-.902343 1.050781-1.320312 1.601562-.613281.800782-1.167969 1.6875-1.703125 2.566407-.535156.882812-.953125 1.664062-1.375 2.539062-.425781.871094-.753906 1.597657-1.074219 2.398438-.429687 1.140625-.796875 2.304687-1.09375 3.488281-.175781.679688-.394531 1.335938-.527344 2.03125-.390624 1.964844-.589843 3.964844-.601562 5.96875v104zm0 0" fill="#79bd9a" data-original="#79BD9A" class="" style="fill:#B8B8B8" data-old_color="#B6B8B6"/><path d="m384 8h-304c-4.417969 0-8 3.582031-8 8v80c0 4.417969 3.582031 8 8 8h48v48l40-48h32l32 72 32-72h40l40 48v-48h40c4.417969 0 8-3.582031 8-8v-80c0-4.417969-3.582031-8-8-8zm0 0" fill="#cff09e" data-original="#CFF09E" class="active-path" style="fill:#EBEEEB" data-old_color="#EBEEEA"/><path d="m352 80c-125.480469 0-229.800781-31.039062-251.703125-72h-20.296875c-4.417969 0-8 3.582031-8 8v80c0 4.417969 3.582031 8 8 8h48v48l40-48h32l32 72 32-72h40l40 48v-48h40c4.417969 0 8-3.582031 8-8v-17.078125c-13.03125.703125-26.398438 1.078125-40 1.078125zm0 0" fill="#a8dba8" data-original="#A8DBA8" class="" style="fill:#D6D6D6" data-old_color="#D5D6D5"/><g fill="#3b8686"><path d="m424 256h-37.808594c18.941406-16.578125 26.378906-42.734375 18.996094-66.796875s-28.207031-41.546875-53.1875-44.652344v-32.550781h32c8.835938 0 16-7.164062 16-16v-80c0-8.835938-7.164062-16-16-16h-304c-8.835938 0-16 7.164062-16 16v80c0 8.835938 7.164062 16 16 16h40v32c-26.640625-.039062-50.511719 16.449219-59.902344 41.382812-9.390625 24.929688-2.335937 53.070313 17.710938 70.617188h-37.808594c-22.082031.027344-39.9726562 17.917969-40 40v120c0 17.671875 14.328125 32 32 32 5.632812-.03125 11.15625-1.570312 16-4.449219v28.449219c0 4.417969 3.582031 8 8 8h352c4.417969 0 8-3.582031 8-8v-28.449219c4.84375 2.878907 10.367188 4.417969 16 4.449219 17.671875 0 32-14.328125 32-32v-120c-.027344-22.082031-17.917969-39.972656-40-40zm24 40v96h-32v-64c0-4.417969-3.582031-8-8-8s-8 3.582031-8 8v64h-48v-84.6875l35.3125-35.3125h36.6875c13.253906 0 24 10.746094 24 24zm-152 96c-4.417969 0-8 3.582031-8 8v64h-48v-84.6875l35.3125-35.3125h36.6875c13.253906 0 24 10.746094 24 24v96h-32v-64c0-4.417969-3.582031-8-8-8zm-155.3125-120-20.6875 20.6875-20.6875-20.6875zm-12.6875 35.3125 35.3125-35.3125h5.191406v.527344c-2.574218 20.886718 5.410156 41.679687 21.304688 55.472656h-37.808594c-8.683594.03125-17.117188 2.914062-24 8.207031zm236.6875-35.3125-20.6875 20.6875-20.6875-20.6875zm-64 0 35.3125 35.3125v28.894531c-6.882812-5.292969-15.316406-8.175781-24-8.207031h-37.808594c16.074219-13.890625 24.0625-34.945312 21.257813-56zm-20.6875 8c0 26.507812-21.492188 48-48 48s-48-21.492188-48-48c.015625-2.105469.167969-4.210938.464844-6.296875.054687-.445313.128906-.878906.199218-1.320313.316407-2.011718.757813-4 1.320313-5.957031 6.78125-22.84375 29.292969-37.257812 52.875-33.851562 23.585937 3.40625 41.101563 23.597656 41.140625 47.425781zm-27.3125 64-20.6875 20.6875-20.6875-20.6875zm139.3125-136c0 26.507812-21.492188 48-48 48s-48-21.492188-48-48 21.492188-48 48-48c26.5.027344 47.972656 21.5 48 48zm-312-112v-80h304v80h-40c-4.417969 0-8 3.582031-8 8v25.902344l-25.847656-31.03125c-1.523438-1.824219-3.777344-2.875-6.152344-2.871094h-40c-3.164062 0-6.027344 1.863281-7.3125 4.753906l-24.6875 55.550782-24.6875-55.550782c-1.285156-2.890625-4.148438-4.753906-7.3125-4.753906h-32c-2.375-.003906-4.628906 1.046875-6.152344 2.871094l-25.847656 31.03125v-25.902344c0-4.417969-3.582031-8-8-8zm91.753906 16h23.054688l29.878906 67.246094c1.285156 2.894531 4.148438 4.757812 7.3125 4.757812s6.027344-1.863281 7.3125-4.757812l29.878906-67.246094h31.054688l28.304687 33.96875c-23.105469 5.699219-41.121093 23.777344-46.742187 46.902344-5.621094 23.128906 2.085937 47.460937 20 63.128906h-10.519532c-9.757812-24.175781-33.21875-40.003906-59.289062-40.003906s-49.53125 15.828125-59.289062 40.003906h-10.519532c17.015625-14.878906 24.894532-37.652344 20.707032-59.863281-4.183594-22.214844-19.808594-40.558594-41.074219-48.226563zm-99.753906 96c0-26.507812 21.492188-48 48-48s48 21.492188 48 48-21.492188 48-48 48c-26.5-.027344-47.972656-21.5-48-48zm-32 64h36.6875l35.3125 35.3125v84.6875h-48v-64c0-4.417969-3.582031-8-8-8s-8 3.582031-8 8v64h-32v-96c0-13.253906 10.746094-24 24-24zm-8 160c-8.835938 0-16-7.164062-16-16v-8h32v8c0 8.835938-7.164062 16-16 16zm32-16v-8h48v56h-48zm64 40v-88c0-13.253906 10.746094-24 24-24h36.6875l35.3125 35.3125v84.6875h-48v-64c0-4.417969-3.582031-8-8-8s-8 3.582031-8 8v64h-32zm272 8h-48v-56h48zm48-48c0 8.835938-7.164062 16-16 16s-16-7.164062-16-16v-8h32zm0 0" data-original="#000000" class="" style="fill:#000000"/><path d="m112 48h48c4.417969 0 8-3.582031 8-8s-3.582031-8-8-8h-48c-4.417969 0-8 3.582031-8 8s3.582031 8 8 8zm0 0" data-original="#000000" class="" style="fill:#000000"/><path d="m208 48h64c4.417969 0 8-3.582031 8-8s-3.582031-8-8-8h-64c-4.417969 0-8 3.582031-8 8s3.582031 8 8 8zm0 0" data-original="#000000" class="" style="fill:#000000"/><path d="m320 48h40c4.417969 0 8-3.582031 8-8s-3.582031-8-8-8h-40c-4.417969 0-8 3.582031-8 8s3.582031 8 8 8zm0 0" data-original="#000000" class="" style="fill:#000000"/><path d="m176 72c0-4.417969-3.582031-8-8-8h-56c-4.417969 0-8 3.582031-8 8s3.582031 8 8 8h56c4.417969 0 8-3.582031 8-8zm0 0" data-original="#000000" class="" style="fill:#000000"/><path d="m336 64h-96c-4.417969 0-8 3.582031-8 8s3.582031 8 8 8h96c4.417969 0 8-3.582031 8-8s-3.582031-8-8-8zm0 0" data-original="#000000" class="" style="fill:#000000"/></g></g> </svg>
